<svg xmlns="http://www.w3.org/2000/svg" viewBox="0 0 170 80" fill="white">
  <path d="M75.8,20.1c1.5-1.9,2.5-4.5,2.2-7.1c-2.2,0.1-4.8,1.5-6.4,3.3c-1.4,1.6-2.6,4.2-2.3,6.7C71.8,23.2,74.2,22,75.8,20.1z"/>
  <path d="M78,23.5c-3.5-0.2-6.5,2-8.2,2c-1.7,0-4.3-1.9-7.1-1.8c-3.7,0.1-7,2.1-8.9,5.4c-3.8,6.6-1,16.3,2.7,21.7c1.8,2.6,4,5.5,6.8,5.4c2.7-0.1,3.8-1.8,7.1-1.8c3.3,0,4.2,1.8,7.1,1.7c2.9-0.1,4.7-2.6,6.5-5.3c2-2.9,2.9-5.8,2.9-6c-0.1,0-5.5-2.1-5.6-8.4c0-5.2,4.3-7.7,4.5-7.9C83.5,24.8,79.2,23.6,78,23.5z"/>
  <text x="100" y="50" font-family="'SF Pro Display', -apple-system, Arial, sans-serif" font-size="22" font-weight="500">Apple</text>
</svg>
